<svg xmlns="http://www.w3.org/2000/svg" viewBox="0 0 1200 320" width="1200" height="320">
  <defs>
    <linearGradient id="bg" x1="0%" y1="0%" x2="100%" y2="100%">
      <stop offset="0%" style="stop-color:#0f172a"/>
      <stop offset="50%" style="stop-color:#1e293b"/>
      <stop offset="100%" style="stop-color:#0f172a"/>
    </linearGradient>
    <linearGradient id="accent" x1="0%" y1="0%" x2="100%" y2="0%">
      <stop offset="0%" style="stop-color:#38bdf8"/>
      <stop offset="50%" style="stop-color:#818cf8"/>
      <stop offset="100%" style="stop-color:#c084fc"/>
    </linearGradient>
    <linearGradient id="goldAccent" x1="0%" y1="0%" x2="100%" y2="0%">
      <stop offset="0%" style="stop-color:#fbbf24"/>
      <stop offset="100%" style="stop-color:#f59e0b"/>
    </linearGradient>
    <filter id="glow">
      <feGaussianBlur stdDeviation="3" result="blur"/>
      <feMerge>
        <feMergeNode in="blur"/>
        <feMergeNode in="SourceGraphic"/>
      </feMerge>
    </filter>
    <filter id="softGlow">
      <feGaussianBlur stdDeviation="8" result="blur"/>
      <feMerge>
        <feMergeNode in="blur"/>
        <feMergeNode in="SourceGraphic"/>
      </feMerge>
    </filter>
  </defs>

  <!-- Background -->
  <rect width="1200" height="320" rx="16" fill="url(#bg)"/>

  <!-- Subtle grid pattern -->
  <g opacity="0.04" stroke="#818cf8" stroke-width="0.5">
    <line x1="0" y1="40" x2="1200" y2="40"/>
    <line x1="0" y1="80" x2="1200" y2="80"/>
    <line x1="0" y1="120" x2="1200" y2="120"/>
    <line x1="0" y1="160" x2="1200" y2="160"/>
    <line x1="0" y1="200" x2="1200" y2="200"/>
    <line x1="0" y1="240" x2="1200" y2="240"/>
    <line x1="0" y1="280" x2="1200" y2="280"/>
    <line x1="100" y1="0" x2="100" y2="320"/>
    <line x1="200" y1="0" x2="200" y2="320"/>
    <line x1="300" y1="0" x2="300" y2="320"/>
    <line x1="400" y1="0" x2="400" y2="320"/>
    <line x1="500" y1="0" x2="500" y2="320"/>
    <line x1="600" y1="0" x2="600" y2="320"/>
    <line x1="700" y1="0" x2="700" y2="320"/>
    <line x1="800" y1="0" x2="800" y2="320"/>
    <line x1="900" y1="0" x2="900" y2="320"/>
    <line x1="1000" y1="0" x2="1000" y2="320"/>
    <line x1="1100" y1="0" x2="1100" y2="320"/>
  </g>

  <!-- Decorative corner accents -->
  <path d="M0,16 Q0,0 16,0 L80,0" fill="none" stroke="url(#accent)" stroke-width="2" opacity="0.6"/>
  <path d="M0,16 L0,80" fill="none" stroke="url(#accent)" stroke-width="2" opacity="0.6"/>
  <path d="M1120,0 L1184,0 Q1200,0 1200,16" fill="none" stroke="url(#accent)" stroke-width="2" opacity="0.6"/>
  <path d="M1200,16 L1200,80" fill="none" stroke="url(#accent)" stroke-width="2" opacity="0.6"/>
  <path d="M0,304 Q0,320 16,320 L80,320" fill="none" stroke="url(#accent)" stroke-width="2" opacity="0.3"/>
  <path d="M0,240 L0,304" fill="none" stroke="url(#accent)" stroke-width="2" opacity="0.3"/>
  <path d="M1120,320 L1184,320 Q1200,320 1200,304" fill="none" stroke="url(#accent)" stroke-width="2" opacity="0.3"/>
  <path d="M1200,240 L1200,304" fill="none" stroke="url(#accent)" stroke-width="2" opacity="0.3"/>

  <!-- Mall icon: stylized storefront -->
  <g transform="translate(80, 60)" filter="url(#glow)">
    <!-- Roof -->
    <path d="M0,80 L50,20 L100,80" fill="none" stroke="url(#accent)" stroke-width="3" stroke-linecap="round" stroke-linejoin="round"/>
    <!-- Pillars -->
    <line x1="15" y1="80" x2="15" y2="140" stroke="#94a3b8" stroke-width="2.5"/>
    <line x1="85" y1="80" x2="85" y2="140" stroke="#94a3b8" stroke-width="2.5"/>
    <!-- Base -->
    <line x1="5" y1="140" x2="95" y2="140" stroke="#94a3b8" stroke-width="2.5"/>
    <!-- Door -->
    <rect x="35" y="100" width="30" height="40" rx="3" fill="none" stroke="url(#accent)" stroke-width="1.5" opacity="0.7"/>
    <!-- Shelves (skills) -->
    <line x1="20" y1="95" x2="32" y2="95" stroke="#fbbf24" stroke-width="1.5" opacity="0.6"/>
    <line x1="68" y1="95" x2="80" y2="95" stroke="#fbbf24" stroke-width="1.5" opacity="0.6"/>
    <line x1="20" y1="108" x2="32" y2="108" stroke="#38bdf8" stroke-width="1.5" opacity="0.6"/>
    <line x1="68" y1="108" x2="80" y2="108" stroke="#38bdf8" stroke-width="1.5" opacity="0.6"/>
    <line x1="20" y1="121" x2="32" y2="121" stroke="#c084fc" stroke-width="1.5" opacity="0.6"/>
    <line x1="68" y1="121" x2="80" y2="121" stroke="#c084fc" stroke-width="1.5" opacity="0.6"/>
    <!-- Star above roof -->
    <polygon points="50,8 53,16 62,16 55,21 58,30 50,25 42,30 45,21 38,16 47,16" fill="url(#goldAccent)" opacity="0.9" transform="scale(0.9) translate(5,-12)"/>
  </g>

  <!-- Title -->
  <text x="230" y="110" font-family="Segoe UI, Helvetica, Arial, sans-serif" font-size="52" font-weight="700" fill="#f8fafc" letter-spacing="-1">Alex Skill Mall</text>

  <!-- Tagline -->
  <text x="230" y="148" font-family="Segoe UI, Helvetica, Arial, sans-serif" font-size="20" fill="#94a3b8" font-weight="400">Battle-tested skills for AI-assisted development</text>

  <!-- Accent line -->
  <rect x="230" y="164" width="120" height="3" rx="1.5" fill="url(#accent)" opacity="0.8"/>

  <!-- Stats badges -->
  <g transform="translate(230, 190)">
    <!-- Skills badge -->
    <rect x="0" y="0" width="110" height="36" rx="18" fill="#1e293b" stroke="#334155" stroke-width="1"/>
    <circle cx="20" cy="18" r="6" fill="#38bdf8" opacity="0.8"/>
    <text x="34" y="23" font-family="Segoe UI, Helvetica, Arial, sans-serif" font-size="14" font-weight="600" fill="#e2e8f0">303 skills</text>

    <!-- Categories badge -->
    <rect x="124" y="0" width="130" height="36" rx="18" fill="#1e293b" stroke="#334155" stroke-width="1"/>
    <circle cx="144" cy="18" r="6" fill="#818cf8" opacity="0.8"/>
    <text x="158" y="23" font-family="Segoe UI, Helvetica, Arial, sans-serif" font-size="14" font-weight="600" fill="#e2e8f0">35 categories</text>

    <!-- Curated badge -->
    <rect x="268" y="0" width="164" height="36" rx="18" fill="#1e293b" stroke="#334155" stroke-width="1"/>
    <circle cx="288" cy="18" r="6" fill="#c084fc" opacity="0.8"/>
    <text x="302" y="23" font-family="Segoe UI, Helvetica, Arial, sans-serif" font-size="14" font-weight="600" fill="#e2e8f0">ACT Edition v1.0</text>
  </g>

  <!-- Bottom tagline -->
  <text x="230" y="268" font-family="Segoe UI, Helvetica, Arial, sans-serif" font-size="13" fill="#64748b">Drop a skill into <tspan fill="#94a3b8" font-family="Consolas, monospace">.github/skills/</tspan> and your AI assistant learns it instantly</text>

  <!-- Right side: floating skill cards -->
  <g transform="translate(820, 45)" opacity="0.4">
    <rect x="0" y="0" width="160" height="40" rx="8" fill="#38bdf8"/>
    <rect x="40" y="50" width="160" height="40" rx="8" fill="#818cf8"/>
    <rect x="10" y="100" width="160" height="40" rx="8" fill="#c084fc"/>
    <rect x="50" y="150" width="160" height="40" rx="8" fill="#fbbf24"/>
    <rect x="20" y="200" width="160" height="40" rx="8" fill="#34d399"/>
  </g>

  <!-- Right side: skill card labels -->
  <g transform="translate(820, 45)" font-family="Consolas, monospace" font-size="11">
    <text x="14" y="25" fill="#f8fafc" opacity="0.7">security/</text>
    <text x="54" y="75" fill="#f8fafc" opacity="0.7">azure/</text>
    <text x="24" y="125" fill="#f8fafc" opacity="0.7">ai-llm/</text>
    <text x="64" y="175" fill="#f8fafc" opacity="0.7">data/</text>
    <text x="34" y="225" fill="#f8fafc" opacity="0.7">supervisor/</text>
  </g>

  <!-- Version pill bottom-right -->
  <rect x="1070" y="280" width="100" height="24" rx="12" fill="#1e293b" stroke="#334155" stroke-width="1"/>
  <text x="1120" y="296" font-family="Consolas, monospace" font-size="11" fill="#94a3b8" text-anchor="middle">v1.0.0</text>
</svg>
